<?xml version="1.0" encoding="UTF-8"?>
<!-- Generated by Pixelmator Pro 3.1.1 -->
<svg width="500" height="500" viewBox="0 0 500 500" xmlns="http://www.w3.org/2000/svg" xmlns:xlink="http://www.w3.org/1999/xlink">
    <path id="Shape-copy" fill="none" stroke="#ffffff" stroke-width="9.313725" stroke-linecap="round" stroke-linejoin="round" d="M 340.869141 242.738281 C 301.433136 242.738281 269.464844 210.769958 269.464844 171.333984 C 269.464844 131.89798 301.433136 99.927734 340.869141 99.927734 C 380.305115 99.927734 412.275391 131.89798 412.275391 171.333984 C 412.275391 210.769958 380.305115 242.738281 340.869141 242.738281 Z"/>
    <path id="Shape-copy-2" fill="none" stroke="#ffffff" stroke-width="9.313725" stroke-linecap="round" stroke-linejoin="round" d="M 160.804688 155.810547 C 121.368706 155.810547 89.398438 123.840271 89.398438 84.404297 C 89.398438 44.968292 121.368706 13 160.804688 13 C 200.240662 13 232.208984 44.968292 232.208984 84.404297 C 232.208984 123.840271 200.240662 155.810547 160.804688 155.810547 Z"/>
    <path id="Shape-copy-4" fill="none" stroke="#ffffff" stroke-width="9.313725" stroke-linecap="round" stroke-linejoin="round" d="M 340.869141 488 C 301.433136 488 269.464844 456.031677 269.464844 416.595703 C 269.464844 377.159729 301.433136 345.189453 340.869141 345.189453 C 380.305115 345.189453 412.275391 377.159729 412.275391 416.595703 C 412.275391 456.031677 380.305115 488 340.869141 488 Z"/>
    <path id="Shape-copy-3" fill="none" stroke="#ffffff" stroke-width="9.313725" stroke-linecap="round" stroke-linejoin="round" d="M 179.431641 360.712891 C 139.995667 360.712891 108.025391 328.742615 108.025391 289.306641 C 108.025391 249.870667 139.995667 217.902344 179.431641 217.902344 C 218.867615 217.902344 250.835938 249.870667 250.835938 289.306641 C 250.835938 328.742615 218.867615 360.712891 179.431641 360.712891 Z"/>
</svg>
