<?xml version="1.0" encoding="UTF-8"?>
<!-- Generated by Pixelmator Pro 3.0.1 -->
<svg width="100" height="100" viewBox="0 0 100 100">
    <path id="Gear" fill-rule="evenodd" stroke="none" d="M 96.124031 59.43898 C 93.139549 60.141693 88.980606 61.120766 85.662796 61.901001 C 85.101509 63.58009 84.422836 65.21759 83.63179 66.801407 C 85.426369 69.698723 87.6744 73.332832 89.290695 75.94136 C 90.523277 77.934402 90.717072 79.992172 88.368217 82.3414 L 82.341064 88.37011 C 79.992249 90.71933 77.93409 90.52359 75.941879 89.289871 C 73.333313 87.675133 69.697647 85.425507 66.802315 83.630951 C 65.218056 84.422844 63.579567 85.101288 61.899208 85.661179 C 61.120132 88.977859 60.143429 93.137939 59.437973 96.124016 C 58.903091 98.405792 57.585251 100 54.263565 100 L 45.736435 100 C 42.414749 100 41.096909 98.40657 40.562027 96.124016 C 39.856571 93.139503 38.879868 88.977859 38.100792 85.661179 C 36.420437 85.101288 34.781948 84.422844 33.197685 83.630951 C 30.302345 85.424347 26.666685 87.673973 24.058121 89.289871 C 22.06591 90.52359 20.00775 90.71933 17.658937 88.37011 L 11.631785 82.3414 C 9.282928 79.992172 9.476726 77.934402 10.709305 75.94136 C 12.325601 73.332832 14.573634 69.698723 16.36821 66.801407 C 15.577165 65.21759 14.898493 63.58009 14.337207 61.901001 C 11.0194 61.120766 6.86047 60.141693 3.875969 59.43898 C 1.593018 58.902153 -0 57.585491 -0 54.263393 L -0 45.736607 C -0 42.414509 1.593018 41.097824 3.875969 40.560997 C 6.86047 39.858284 11.0194 38.879211 14.337207 38.098972 C 14.898493 36.41991 15.577165 34.78241 16.36821 33.198563 C 14.573634 30.301277 12.325601 26.66716 10.709305 24.058609 C 9.476726 22.065598 9.282928 20.007828 11.631785 17.6586 L 17.658937 11.62989 C 20.00775 9.28064 22.06591 9.476387 24.058121 10.710129 C 26.666685 12.324837 30.302345 14.574471 33.197685 16.369049 C 34.781948 15.577156 36.420437 14.898689 38.100792 14.338821 C 38.879868 11.022141 39.856571 6.862038 40.562027 3.875984 C 41.096909 1.594185 42.414749 0 45.736435 0 L 54.263565 0 C 57.585251 0 58.903091 1.59343 59.437973 3.875984 C 60.143429 6.860489 61.120132 11.022141 61.899208 14.338821 C 63.579567 14.898689 65.218056 15.577156 66.802315 16.369049 C 69.697647 14.575623 73.333313 12.326027 75.941879 10.710129 C 77.93409 9.476387 79.992249 9.28064 82.341064 11.62989 L 88.368217 17.6586 C 90.717072 20.007828 90.523277 22.065598 89.290695 24.058609 C 87.6744 26.66716 85.426369 30.301277 83.63179 33.198563 C 84.422836 34.78241 85.101509 36.41991 85.662796 38.098972 C 88.980606 38.879211 93.139549 39.858284 96.124031 40.560997 C 98.406982 41.097824 100 42.414509 100 45.736607 L 100 54.263771 C 100 57.585491 98.406982 58.902153 96.124031 59.43898 Z M 50 30.62027 C 39.296803 30.62027 30.620153 39.296947 30.620153 50.000187 C 30.620153 60.70343 39.296803 69.380104 50 69.380104 C 60.703197 69.380104 69.379845 60.70343 69.379845 50.000187 C 69.379845 39.296947 60.703197 30.62027 50 30.62027 Z"/>
</svg>
